<svg xmlns="http://www.w3.org/2000/svg" version="1.1" xmlns:xlink="http://www.w3.org/1999/xlink" xmlns:svgjs="http://svgjs.dev/svgjs" width="1000" height="750" viewBox="0 0 1000 750"><rect width="1000" height="750" fill="#444444"></rect><g transform="matrix(0.834,0,0,0.834,82.49454545454546,115.4193570850203)"><svg viewBox="0 0 396 247" data-background-color="#444444" preserveAspectRatio="xMidYMid meet" height="623" width="1000" xmlns="http://www.w3.org/2000/svg" xmlns:xlink="http://www.w3.org/1999/xlink"><g id="tight-bounds" transform="matrix(1,0,0,1,0.2400000000000091,-0.09999999999999432)"><svg viewBox="0 0 395.52 247.2" height="247.2" width="395.52"><g><svg></svg></g><g><svg viewBox="0 0 395.52 247.2" height="247.2" width="395.52"><g transform="matrix(1,0,0,1,39.55199999999999,110.50917821028595)"><svg viewBox="0 0 316.416 26.181643579428073" height="26.181643579428073" width="316.416"><g><svg viewBox="0 0 316.416 26.181643579428073" height="26.181643579428073" width="316.416"><g><svg viewBox="0 0 316.416 26.181643579428073" height="26.181643579428073" width="316.416"><g><svg viewBox="0 0 316.416 26.181643579428073" height="26.181643579428073" width="316.416"><g><svg viewBox="0 0 316.416 26.181643579428073" height="26.181643579428073" width="316.416"><g transform="matrix(1,0,0,1,0,0)"><svg width="316.416" viewBox="5.199999809265137 -37.650001525878906 459.8199768066406 38.05000305175781" height="26.181643579428073" data-palette-color="#ffffff"><path d="M9.9 0L5.2 0 5.2-37.3 5.25-37.3 24.2-10.4 22.15-10.8 41.05-37.3 41.15-37.3 41.15 0 36.35 0 36.35-26.3 36.65-23.85 23-4.55 22.9-4.55 9.05-23.85 9.9-26.1 9.9 0ZM55.9-36.15L55.9-12.8Q55.9-10.35 57.07-8.43 58.25-6.5 60.2-5.4 62.15-4.3 64.6-4.3L64.6-4.3Q67.15-4.3 69.15-5.4 71.15-6.5 72.3-8.43 73.45-10.35 73.45-12.8L73.45-12.8 73.45-36.15 78.2-36.15 78.2-12.65Q78.2-8.7 76.37-5.75 74.55-2.8 71.47-1.2 68.4 0.4 64.6 0.4L64.6 0.4 64.6 0.4Q60.8 0.4 57.75-1.2 54.7-2.8 52.9-5.75 51.1-8.7 51.1-12.65L51.1-12.65 51.1-36.15 55.9-36.15ZM111.9-36.15L116.7-36.15 116.7 0 111.9 0 111.9-15.85 92.95-15.85 92.95 0 88.1 0 88.1-36.15 92.95-36.15 92.95-20.45 111.9-20.45 111.9-36.15ZM128.24 0L123.49 0 139.29-37.65 139.59-37.65 155.34 0 149.79 0 137.99-30.05 141.44-32.3 128.24 0ZM131.34-9.5L132.74-13.7 146.19-13.7 147.79-9.5 131.34-9.5ZM166.84 0L162.14 0 162.14-37.3 162.19-37.3 181.14-10.4 179.09-10.8 197.99-37.3 198.09-37.3 198.09 0 193.29 0 193.29-26.3 193.59-23.85 179.94-4.55 179.84-4.55 165.99-23.85 166.84-26.1 166.84 0ZM213.19 0L208.49 0 208.49-37.3 208.54-37.3 227.49-10.4 225.44-10.8 244.34-37.3 244.44-37.3 244.44 0 239.64 0 239.64-26.3 239.94-23.85 226.29-4.55 226.19-4.55 212.34-23.85 213.19-26.1 213.19 0ZM254.84 0L254.84-36.15 278.34-36.15 278.34-31.5 259.69-31.5 259.69-20.5 276.34-20.5 276.34-15.85 259.69-15.85 259.69-4.65 279.04-4.65 279.04 0 254.84 0ZM299.03 0L287.43 0 287.43-36.15 297.28-36.15Q302.63-36.15 306.41-34.5 310.18-32.85 312.48-30.15 314.78-27.45 315.86-24.18 316.93-20.9 316.93-17.65L316.93-17.65Q316.93-13.55 315.51-10.3 314.08-7.05 311.58-4.75 309.08-2.45 305.86-1.23 302.63 0 299.03 0L299.03 0ZM292.28-31.5L292.28-4.65 298.08-4.65Q301.08-4.65 303.61-5.55 306.13-6.45 308.01-8.15 309.88-9.85 310.93-12.33 311.98-14.8 311.98-17.95L311.98-17.95Q311.98-21.3 310.88-23.83 309.78-26.35 307.88-28.05 305.98-29.75 303.58-30.63 301.18-31.5 298.53-31.5L298.53-31.5 292.28-31.5ZM358.23 0L364.68-4.7 377.08-4.7 377.08 0 358.23 0ZM338.63-18.05L338.63-18.05Q338.63-21.8 340.05-25.13 341.48-28.45 344.03-31.03 346.58-33.6 349.9-35.08 353.23-36.55 357.08-36.55L357.08-36.55Q360.88-36.55 364.2-35.08 367.53-33.6 370.1-31.03 372.68-28.45 374.13-25.13 375.58-21.8 375.58-18.05L375.58-18.05Q375.58-14.2 374.13-10.85 372.68-7.5 370.1-4.98 367.53-2.45 364.2-1.03 360.88 0.4 357.08 0.4L357.08 0.4Q353.23 0.4 349.9-1 346.58-2.4 344.03-4.9 341.48-7.4 340.05-10.75 338.63-14.1 338.63-18.05ZM343.63-18L343.63-18Q343.63-15.15 344.68-12.68 345.73-10.2 347.58-8.3 349.43-6.4 351.88-5.35 354.33-4.3 357.18-4.3L357.18-4.3Q359.98-4.3 362.43-5.35 364.88-6.4 366.68-8.3 368.48-10.2 369.53-12.68 370.58-15.15 370.58-18.05L370.58-18.05Q370.58-20.85 369.53-23.35 368.48-25.85 366.63-27.73 364.78-29.6 362.33-30.68 359.88-31.75 357.08-31.75L357.08-31.75Q354.23-31.75 351.78-30.68 349.33-29.6 347.48-27.7 345.63-25.8 344.63-23.3 343.63-20.8 343.63-18ZM386.38 0L381.63 0 397.43-37.65 397.73-37.65 413.48 0 407.93 0 396.13-30.05 399.58-32.3 386.38 0ZM389.48-9.5L390.88-13.7 404.33-13.7 405.93-9.5 389.48-9.5ZM420.27 0L420.27-36.15 425.12-36.15 425.12 0 420.27 0ZM447.12 0L435.52 0 435.52-36.15 445.37-36.15Q450.72-36.15 454.5-34.5 458.27-32.85 460.57-30.15 462.87-27.45 463.95-24.18 465.02-20.9 465.02-17.65L465.02-17.65Q465.02-13.55 463.6-10.3 462.17-7.05 459.67-4.75 457.17-2.45 453.95-1.23 450.72 0 447.12 0L447.12 0ZM440.37-31.5L440.37-4.65 446.17-4.65Q449.17-4.65 451.7-5.55 454.22-6.45 456.1-8.15 457.97-9.85 459.02-12.33 460.07-14.8 460.07-17.95L460.07-17.95Q460.07-21.3 458.97-23.83 457.87-26.35 455.97-28.05 454.07-29.75 451.67-30.63 449.27-31.5 446.62-31.5L446.62-31.5 440.37-31.5Z" opacity="1" transform="matrix(1,0,0,1,0,0)" fill="#ffffff" class="undefined-text-0" data-fill-palette-color="primary" id="text-0"></path></svg></g></svg></g></svg></g></svg></g><g></g></svg></g></svg></g><g mask="url(#07513a1b-23d8-4265-84ef-fc1f9532b10c)"><g transform="matrix(2.715253102038016, 0, 0, 2.715253102038016, 75.1594924644394, 1.0000000000000142)"><svg xmlns="http://www.w3.org/2000/svg" xmlns:xlink="http://www.w3.org/1999/xlink" version="1.0" x="0" y="0" viewBox="4.667734146118164 4.6859588623046875 90.3050308227539 90.30465698242188" enable-background="new 0 0 100 100" xml:space="preserve" height="90.30465698242188" width="90.3050308227539" class="icon-none" data-fill-palette-color="accent" id="none"><path d="M17.504 35.743c-1.334 8.611 0.522 17.134 5.093 23.382 3.514 4.801 8.413 7.905 13.796 8.739 5.677 0.88 11.253-0.429 15.703-3.685 1.248-0.912 2.36-1.946 3.326-3.076-2.222 0.978-4.814 1.267-7.626 0.831-11.717-1.816-19.673-13.464-17.735-25.964 0.934-6.03 4.384-11.497 9.713-15.397 6.768-4.952 15.953-6.97 25.201-5.537 7.474 1.158 17.67 5.964 25.56 15.213 0 0-22.835-39.421-56.115-20.356C23.689 16.04 18.653 28.323 17.504 35.743z" fill="#00d1cd" data-fill-palette-color="accent"></path><path d="M82.544 65.256c1.659-8.555 0.125-17.141-4.207-23.557-3.331-4.931-8.109-8.217-13.457-9.253-5.639-1.094-11.261 0.004-15.83 3.091-1.282 0.863-2.431 1.854-3.44 2.947 2.257-0.894 4.859-1.084 7.652-0.543 11.64 2.257 19.151 14.196 16.744 26.616-1.161 5.989-4.815 11.324-10.288 15.019-6.949 4.692-16.205 6.364-25.393 4.582C26.902 82.719 16.894 77.532 9.358 67.992c0 0 21.331 40.255 55.307 22.457C75.621 84.712 81.115 72.628 82.544 65.256z" fill="#00d1cd" data-fill-palette-color="accent"></path><path d="M35.726 82.88c8.611 1.334 17.133-0.522 23.381-5.094 4.801-3.514 7.905-8.413 8.74-13.796 0.879-5.676-0.429-11.253-3.686-15.702-0.912-1.248-1.946-2.36-3.076-3.327 0.979 2.222 1.267 4.815 0.831 7.626-1.816 11.717-13.463 19.673-25.965 17.736-6.029-0.934-11.497-4.385-15.395-9.713-4.952-6.768-6.971-15.954-5.538-25.202 1.158-7.474 5.964-17.67 15.213-25.559 0 0-39.421 22.835-20.356 56.115C16.022 76.695 28.305 81.73 35.726 82.88z" fill="#00d1cd" data-fill-palette-color="accent"></path><path d="M90.432 35.718c-5.738-10.955-17.822-16.45-25.194-17.879-8.554-1.659-17.141-0.125-23.557 4.208-4.931 3.331-8.217 8.108-9.254 13.456-1.094 5.64 0.004 11.261 3.092 15.83 0.863 1.282 1.854 2.431 2.946 3.441-0.894-2.257-1.084-4.859-0.542-7.652 2.257-11.64 14.196-19.151 26.615-16.744 5.99 1.161 11.324 4.816 15.019 10.289 4.693 6.949 6.363 16.204 4.583 25.392-1.44 7.423-6.626 17.431-16.167 24.966C67.973 91.025 108.228 69.694 90.432 35.718z" fill="#00d1cd" data-fill-palette-color="accent"></path></svg></g></g></svg></g><defs><mask id="0f453f00-235a-4d3b-8996-6058fb6663df"><rect width="640" height="400" fill="white"></rect><rect width="348.05760000000004" height="47.94152323719658" fill="black" x="145.97119999999998" y="176.0292383814017" id="transform-me" transform="matrix(1,0,0,1,-122.24000000000001,-76.4)"></rect></mask><mask id="f98305cb-9f19-4685-a600-2ecadb0b8ed8"><rect width="640" height="400" fill="white"></rect><rect width="348.05760000000004" height="38.19232303486623" fill="black" x="145.97119999999998" y="180.9038384825669" id="transform-me" transform="matrix(1,0,0,1,-122.24000000000001,-76.4)"></rect></mask><mask id="28a778e6-7962-431e-b902-4eb9a35eca20"><rect width="640" height="400" fill="white"></rect><rect width="348.05760000000004" height="27.183817838059475" fill="black" x="145.97119999999998" y="186.40809108097025" id="transform-me" transform="matrix(1,0,0,1,-122.24000000000001,-76.4)"></rect></mask><mask id="ab81beed-f68d-461a-8df0-4e2c7dcb2cfb"><rect width="640" height="400" fill="white"></rect><rect width="348.05760000000004" height="47.94152323719658" fill="black" x="145.97119999999998" y="176.0292383814017" id="transform-me" transform="matrix(1,0,0,1,-122.24000000000001,-76.4)"></rect></mask><mask id="9885ff44-0d69-4f2e-9163-b67a2918ed92"><rect width="640" height="400" fill="white"></rect><rect width="348.05760000000004" height="38.2859545670137" fill="black" x="145.97119999999998" y="180.85702271649316" id="transform-me" transform="matrix(1,0,0,1,-122.24000000000001,-76.4)"></rect></mask><mask id="eef3b1e5-67ec-4a94-9fe5-ca8b3e3cee72"><rect width="640" height="400" fill="white"></rect><rect width="348.05760000000004" height="42.43969046799486" fill="black" x="145.97119999999998" y="178.78015476600257" id="transform-me" transform="matrix(1,0,0,1,-122.24000000000001,-76.4)"></rect></mask><mask id="9d00ee1d-2c4d-4afe-ac60-f7825b034d35"><rect width="640" height="400" fill="white"></rect><rect width="348.05760000000004" height="41.38037375804308" fill="black" x="145.97119999999998" y="179.30981312097845" id="transform-me" transform="matrix(1,0,0,1,-122.24000000000001,-76.4)"></rect></mask><mask id="cd86c74c-423b-4df3-a845-ec634af2261a"><rect width="640" height="400" fill="white"></rect><rect width="348.05760000000004" height="48.885953082368786" fill="black" x="145.97119999999998" y="175.5570234588156" id="transform-me" transform="matrix(1,0,0,1,-122.24000000000001,-76.4)"></rect></mask><mask id="1931a56f-f9d6-4bb1-bd0c-1d98f8bed955"><rect width="640" height="400" fill="white"></rect><rect width="348.05760000000004" height="41.38037375804308" fill="black" x="145.97119999999998" y="179.30981312097845" id="transform-me" transform="matrix(1,0,0,1,-122.24000000000001,-76.4)"></rect></mask><mask id="e6ec5030-999c-423d-9df8-524c89978b4e"><rect width="640" height="400" fill="white"></rect><rect width="348.05760000000004" height="42.43969046799486" fill="black" x="145.97119999999998" y="178.78015476600257" id="transform-me" transform="matrix(1,0,0,1,-122.24000000000001,-76.4)"></rect></mask><mask id="3de3aec0-0133-4cb3-9ea6-e0792cbc1375"><rect width="640" height="400" fill="white"></rect><rect width="348.05760000000004" height="41.38037375804308" fill="black" x="145.97119999999998" y="179.30981312097845" id="transform-me" transform="matrix(1,0,0,1,-122.24000000000001,-76.4)"></rect></mask><mask id="73ec5859-d115-4d1f-a903-3bca67773cc3"><rect width="640" height="400" fill="white"></rect><rect width="348.05760000000004" height="53.76827016914198" fill="black" x="145.97119999999998" y="173.115864915429" id="transform-me" transform="matrix(1,0,0,1,-122.24000000000001,-76.4)"></rect></mask><mask id="78b7f1cc-4d6c-4683-a469-4cda13097d2b"><rect width="640" height="400" fill="white"></rect><rect width="348.05760000000004" height="51.17568390000001" fill="black" x="145.97119999999998" y="174.41215805" id="transform-me" transform="matrix(1,0,0,1,-122.24000000000001,-76.4)"></rect></mask><mask id="5aaee5d4-e6e5-45a4-8a01-01c6750a28da"><rect width="640" height="400" fill="white"></rect><rect width="348.05760000000004" height="53.76827016914198" fill="black" x="145.97119999999998" y="173.115864915429" id="transform-me" transform="matrix(1,0,0,1,-122.24000000000001,-76.4)"></rect></mask><mask id="32b8e6ab-1f00-4d92-a0cd-09c6bdf63b7e"><rect width="640" height="400" fill="white"></rect><rect width="348.05760000000004" height="47.729943536631865" fill="black" x="145.97119999999998" y="176.13502823168406" id="transform-me" transform="matrix(1,0,0,1,-122.24000000000001,-76.4)"></rect></mask><mask id="3419c071-c023-46f9-bede-f6dd68f75d91"><rect width="640" height="400" fill="white"></rect><rect width="348.05760000000004" height="44.017192609335986" fill="black" x="145.97119999999998" y="177.991403695332" id="transform-me" transform="matrix(1,0,0,1,-122.24000000000001,-76.4)"></rect></mask><mask id="1f44e12e-b2dd-4645-ac60-5147e45820ce"><rect width="640" height="400" fill="white"></rect><rect width="348.05760000000004" height="27.183817838059475" fill="black" x="145.97119999999998" y="186.40809108097025" id="transform-me" transform="matrix(1,0,0,1,-122.24000000000001,-76.4)"></rect></mask><mask id="309bb072-74cd-4e97-bec7-227cc5fa75df"><rect width="640" height="400" fill="white"></rect><rect width="348.05760000000004" height="27.183817838059475" fill="black" x="145.97119999999998" y="186.40809108097025" id="transform-me" transform="matrix(1,0,0,1,-122.24000000000001,-76.4)"></rect></mask><mask id="32ac9a28-e4ff-45c8-bd3c-eeb424a54201"><rect width="640" height="400" fill="white"></rect><rect width="348.05760000000004" height="38.2859545670137" fill="black" x="145.97119999999998" y="180.85702271649316" id="transform-me" transform="matrix(1,0,0,1,-122.24000000000001,-76.4)"></rect></mask><mask id="ce4502c6-368d-4e13-b679-cadc870410ff"><rect width="640" height="400" fill="white"></rect><rect width="348.05760000000004" height="39.028097995273704" fill="black" x="145.97119999999998" y="180.48595100236315" id="transform-me" transform="matrix(1,0,0,1,-122.24000000000001,-76.4)"></rect></mask><mask id="c3bd233a-60d2-4edb-94c5-f4f574624333"><rect width="640" height="400" fill="white"></rect><rect width="348.05760000000004" height="38.543358958742196" fill="black" x="145.97119999999998" y="180.7283205206289" id="transform-me" transform="matrix(1,0,0,1,-122.24000000000001,-76.4)"></rect></mask><mask id="00263cd3-e782-4638-a17e-08cfb2f88315"><rect width="640" height="400" fill="white"></rect><rect width="348.05760000000004" height="60.9044723804858" fill="black" x="145.97119999999998" y="169.5477638097571" id="transform-me" transform="matrix(1,0,0,1,-122.24000000000001,-76.4)"></rect></mask><mask id="8c7f7112-70cd-4290-8c5c-887f52ffa47f"><rect width="640" height="400" fill="white"></rect><rect width="348.05760000000004" height="60.9044723804858" fill="black" x="145.97119999999998" y="169.5477638097571" id="transform-me" transform="matrix(1,0,0,1,-122.24000000000001,-76.4)"></rect></mask><mask id="862a89b6-e11a-4549-a259-509126717ec4"><rect width="640" height="400" fill="white"></rect><rect width="348.05760000000004" height="38.543358958742196" fill="black" x="145.97119999999998" y="180.7283205206289" id="transform-me" transform="matrix(1,0,0,1,-122.24000000000001,-76.4)"></rect></mask><mask id="1675846e-1c10-40e0-abce-6b806d9e390c"><rect width="640" height="400" fill="white"></rect><rect width="232.0384" height="25.69557263916146" fill="black" x="203.9808" y="187.15221368041927" id="transform-me" transform="matrix(1,0,0,1,-122.24000000000001,-76.4)"></rect></mask><mask id="f2f5d722-1fe9-4b44-8d8a-425718a520c3"><rect width="640" height="400" fill="white"></rect><rect width="348.05760000000004" height="38.543358958742196" fill="black" x="145.97119999999998" y="180.7283205206289" id="transform-me" transform="matrix(1,0,0,1,-122.24000000000001,-76.4)"></rect></mask><mask id="b02617f4-cab2-4ee8-b734-fe74865865f3"><rect width="640" height="400" fill="white"></rect><rect width="232.0384" height="25.69557263916146" fill="black" x="203.9808" y="187.15221368041927" id="transform-me" transform="matrix(1,0,0,1,-122.24000000000001,-76.4)"></rect></mask><mask id="07513a1b-23d8-4265-84ef-fc1f9532b10c"><rect width="640" height="400" fill="white"></rect><rect width="348.05760000000004" height="38.543358958742196" fill="black" x="145.97119999999998" y="180.7283205206289" id="transform-me" transform="matrix(1,0,0,1,-122.24000000000001,-76.4)"></rect></mask></defs></svg><rect width="395.52" height="247.2" fill="none" stroke="none" visibility="hidden"></rect></g></svg></g></svg>